<svg xmlns="http://www.w3.org/2000/svg" width="217.413" height="44.817" viewBox="0 0 217.413 44.817"><g transform="translate(1568.7 34.721)"><path d="M-1360.04,17.386c1.1,0,2.2,0,3.3,0,.575,0,.469.077.506.444a3.888,3.888,0,0,0,2.633,3.466,7.1,7.1,0,0,0,2.062.444,11.705,11.705,0,0,0,3.786-.255,4.313,4.313,0,0,0,1.373-.6,1.873,1.873,0,0,0,.885-1.894,1.836,1.836,0,0,0-1.216-1.546,23.768,23.768,0,0,0-3.2-.947c-2.267-.564-4.532-1.132-6.745-1.887a13.307,13.307,0,0,1-3.762-1.905,6.424,6.424,0,0,1-2.51-3.43A6.546,6.546,0,0,1-1360.59,2.3a11.757,11.757,0,0,1,4.8-2.18,22.863,22.863,0,0,1,6.784-.408A15.121,15.121,0,0,1-1344.04.872a9.211,9.211,0,0,1,3.444,2.482,6.8,6.8,0,0,1,1.612,4.274c.013.4.008.4-.37.4-2.213,0-4.426,0-6.639.006-.25,0-.377-.068-.395-.327a1.773,1.773,0,0,0-.085-.366,3.4,3.4,0,0,0-2.4-2.434,8.524,8.524,0,0,0-4.734-.083,3.892,3.892,0,0,0-1.235.566,2.327,2.327,0,0,0-.575.551,1.372,1.372,0,0,0,.076,1.774,4.039,4.039,0,0,0,1.166.865,12.935,12.935,0,0,0,2.57,1.036c1.776.515,3.562,1,5.339,1.507a30.076,30.076,0,0,1,4.4,1.517,6.224,6.224,0,0,1,3.753,4.428,6.383,6.383,0,0,1-2.288,6.657,11.566,11.566,0,0,1-4.6,2.177,22.832,22.832,0,0,1-4.932.658,27.329,27.329,0,0,1-4.6-.176,14.786,14.786,0,0,1-3.987-1.053,8.323,8.323,0,0,1-5.055-6.4c-.072-.369-.128-.742-.175-1.115-.052-.412-.034-.429.375-.43C-1362.269,17.384-1361.154,17.386-1360.04,17.386Z" transform="translate(-164.711 -27.606)" fill="#fff"/><path d="M-1093.075,37.583c.152-.019.2-.146.282-.232a7.686,7.686,0,0,1,5.086-2.568,10.3,10.3,0,0,1,5.087.607,8.711,8.711,0,0,1,5.368,6.248,11.471,11.471,0,0,1-.4,7.169,8.748,8.748,0,0,1-6.964,5.735,10.028,10.028,0,0,1-5.506-.537,7.116,7.116,0,0,1-2.782-1.962.293.293,0,0,0-.213-.144,1.318,1.318,0,0,0-.032.487q0,6.334,0,12.668c0,.746.027.629-.63.63q-3.085.007-6.169,0c-.11,0-.22,0-.33,0-.158.006-.23-.071-.232-.224,0-.11,0-.22,0-.33q0-14.693,0-29.386c0-.063,0-.126,0-.188.013-.342.015-.355.339-.355,2.245,0,4.489,0,6.734-.005.242,0,.333.076.326.323-.013.549-.006,1.1,0,1.648A.893.893,0,0,0-1093.075,37.583Zm4.249,12.217a3.815,3.815,0,0,0,3.969-2.838,7.439,7.439,0,0,0-.1-4.675,3.629,3.629,0,0,0-2.312-2.377,5.346,5.346,0,0,0-2.135-.234,3.7,3.7,0,0,0-3.537,2.866,8.84,8.84,0,0,0-.224,3.407,4.462,4.462,0,0,0,.958,2.418A4.07,4.07,0,0,0-1088.826,49.8Z" transform="translate(-376.319 -55.803)" fill="#fff"/><path d="M-960.943,37.606a.758.758,0,0,0,.367-.305,7.7,7.7,0,0,1,5.011-2.517,10.577,10.577,0,0,1,4.421.361,8.646,8.646,0,0,1,5.969,6.138,11.4,11.4,0,0,1-.266,7.442,8.743,8.743,0,0,1-7.046,5.823,10.024,10.024,0,0,1-5.414-.53,7.2,7.2,0,0,1-2.667-1.8,1.334,1.334,0,0,0-.358-.341,1.048,1.048,0,0,0-.044.5q0,6.308,0,12.617c0,.094,0,.188,0,.282-.005.407-.006.411-.415.412q-3.272,0-6.544,0c-.382,0-.382-.006-.39-.39,0-.063,0-.125,0-.188q0-14.665,0-29.329c0-.644-.063-.575.583-.575q3.107,0,6.214,0a2.764,2.764,0,0,0,.282,0c.228-.024.3.079.3.3-.009.533,0,1.067,0,1.6Zm8.558,7.245a7.3,7.3,0,0,0-.3-2.275,3.772,3.772,0,0,0-3.064-2.839,5.663,5.663,0,0,0-1.684-.051,3.613,3.613,0,0,0-3.138,2.279,6.031,6.031,0,0,0-.442,1.819,7.83,7.83,0,0,0,.233,3.165,3.815,3.815,0,0,0,2.761,2.7,5.5,5.5,0,0,0,1.586.145,3.815,3.815,0,0,0,3.7-2.679A6.379,6.379,0,0,0-952.386,44.851Z" transform="translate(-482.57 -55.8)" fill="#fff"/><path d="M-1568.7-27.532v-.719c0-1.287,0-2.574,0-3.861a2.5,2.5,0,0,1,2.519-2.606c.141-.005.283,0,.424,0h27.077a5.3,5.3,0,0,1,.8.042,2.456,2.456,0,0,1,2.141,2.423c0,.094,0,.188,0,.283q0,13.751,0,27.5a2.76,2.76,0,0,1-.255,1.324,2.351,2.351,0,0,1-2.137,1.379c-.764.017-1.529,0-2.276,0-.066-.172.032-.252.085-.34a8.649,8.649,0,0,0-2.441-11.695,16.6,16.6,0,0,0-4.4-2.109c-1.949-.656-3.955-1.1-5.946-1.6a37.265,37.265,0,0,1-5.642-1.792,10.532,10.532,0,0,1-1.9-1.033,4.041,4.041,0,0,1-.738-.654,1.775,1.775,0,0,1-.116-2.294,3.175,3.175,0,0,1,1.24-.986,8.362,8.362,0,0,1,2.61-.754,12.564,12.564,0,0,1,5.086.267,6.4,6.4,0,0,1,2.768,1.445,4.261,4.261,0,0,1,1.319,2.389c.047.256.144.332.395.331,2.92-.007,5.839,0,8.759-.006.371,0,.383-.01.365-.412a8.879,8.879,0,0,0-2.492-5.937,13.39,13.39,0,0,0-5.054-3.186,23.212,23.212,0,0,0-5.8-1.337,25.767,25.767,0,0,0-3.759-.154,24.85,24.85,0,0,0-8.9,1.758,11.418,11.418,0,0,0-3.474,2.215A.317.317,0,0,1-1568.7-27.532Z" transform="translate(0)" fill="#007ab2"/><path d="M-829.2,12.233c.337-.369.587-.7.89-.965a7.7,7.7,0,0,1,4.157-1.834,12.134,12.134,0,0,1,4.488.172,6.12,6.12,0,0,1,2.784,1.4,5.617,5.617,0,0,1,1.739,3.8c.035.374.03.753.031,1.129q0,6.1,0,12.193c0,.047,0,.094,0,.141-.006.408-.006.414-.419.414q-3.272,0-6.544,0c-.407,0-.411-.006-.411-.417q0-4.59,0-9.18a18.182,18.182,0,0,0-.185-2.72A2.284,2.284,0,0,0-825,14.061a4.9,4.9,0,0,0-2.14.19,2.74,2.74,0,0,0-1.768,1.639,6.952,6.952,0,0,0-.441,2.674c-.005,3.17,0,6.34,0,9.51,0,.676.086.613-.591.614q-3.084,0-6.167,0c-.094,0-.189-.006-.282,0-.214.017-.328-.059-.307-.292.01-.109,0-.22,0-.329q0-12.17,0-24.34c0-.707-.077-.614.635-.616q3.06-.006,6.12,0h.188c.455,0,.459,0,.459.473q0,4,0,8A1.375,1.375,0,0,0-829.2,12.233Z" transform="translate(-588.362 -30.408)" fill="#fff"/><path d="M-554.854,47.688a7.906,7.906,0,0,1-1.893,3.2,10.02,10.02,0,0,1-4.959,2.742,16.636,16.636,0,0,1-9.147-.224,9.377,9.377,0,0,1-4.526-3.084,8.879,8.879,0,0,1-1.885-4.793,11.8,11.8,0,0,1,.31-4.342,9.042,9.042,0,0,1,5.257-6.034,12.363,12.363,0,0,1,4.558-1.048,16.6,16.6,0,0,1,5.413.483,9.624,9.624,0,0,1,5.914,4.352,9.757,9.757,0,0,1,1.225,3.583,15.281,15.281,0,0,1,.116,2.724c-.008.336-.021.337-.349.348-.11,0-.22,0-.33,0h-14.315c-.11,0-.22,0-.33,0-.3.013-.313.029-.286.335a3.953,3.953,0,0,0,3.647,3.736,5.744,5.744,0,0,0,2.417-.214,3.224,3.224,0,0,0,1.947-1.533.439.439,0,0,1,.431-.282c2.2.009,4.4.006,6.593.008A1.225,1.225,0,0,1-554.854,47.688Zm-15.089-5.634a.949.949,0,0,0,.537.066q3.341,0,6.682-.006c.282,0,.565,0,.847,0,.325-.007.353-.033.308-.356a3.836,3.836,0,0,0-.493-1.46,4.429,4.429,0,0,0-6.3-1.257A4.113,4.113,0,0,0-569.943,42.054Z" transform="translate(-796.834 -55.292)" fill="#fff"/><path d="M-1210.8,52.35c-.171.025-.268.161-.391.253a10.415,10.415,0,0,1-5.3,2.12,11.8,11.8,0,0,1-4.02-.21,6.575,6.575,0,0,1-2.423-1.106,5,5,0,0,1-2.011-4.793,5.191,5.191,0,0,1,3.372-4.447,13.843,13.843,0,0,1,3.53-.956c1.563-.251,3.127-.493,4.689-.752a6.567,6.567,0,0,0,1.577-.459,2.193,2.193,0,0,0,.525-.311.79.79,0,0,0,.3-.61,1.563,1.563,0,0,0-1.32-1.824,6.279,6.279,0,0,0-3.393.04,2.421,2.421,0,0,0-1.8,1.633c-.077.252-.251.235-.441.235h-3.578c-.785,0-1.569,0-2.354,0a1.006,1.006,0,0,1-.488-.058,6.694,6.694,0,0,1,.93-2.537,6.766,6.766,0,0,1,3.306-2.684,13.214,13.214,0,0,1,3.552-.864,24.16,24.16,0,0,1,4.792-.084,13.072,13.072,0,0,1,4.377,1.011,5.307,5.307,0,0,1,3.3,4.658c.092,1,.106,2.005.109,3.009.006,2.182,0,4.363,0,6.545a8.605,8.605,0,0,0,.152,1.873,2.034,2.034,0,0,0,.816,1.378.755.755,0,0,1,.131.689.154.154,0,0,1-.144.1c-.11,0-.22.007-.329.007h-6.545c-.5,0-.505,0-.608-.494-.074-.353-.136-.708-.2-1.062A.472.472,0,0,0-1210.8,52.35Zm-.173-6.987c-.449.144-.832.278-1.221.389-.906.258-1.839.39-2.763.566a6.751,6.751,0,0,0-2.056.641,1.653,1.653,0,0,0-.94,1.469,2.134,2.134,0,0,0,1.665,2.216,4.84,4.84,0,0,0,1.777.095,4.4,4.4,0,0,0,2.5-.989,2.68,2.68,0,0,0,1.03-1.941C-1210.932,47.013-1210.968,46.212-1210.968,45.363Z" transform="translate(-276.277 -55.924)" fill="#fff"/><path d="M-648.909,38.472c.145-.2.289-.4.435-.594a7.205,7.205,0,0,1,4.917-2.838c.544-.084,1.092-.112,1.639-.153.343-.026.362-.006.363.313q.005,2.73,0,5.461c0,.31-.013.328-.319.3a15.37,15.37,0,0,0-1.785-.076,8.969,8.969,0,0,0-2.047.27,5.066,5.066,0,0,0-1.049.41,3.512,3.512,0,0,0-1.852,2.978,37.819,37.819,0,0,0-.149,3.807c-.021,1.741-.005,3.483-.005,5.225,0,.078,0,.157,0,.235-.007.407-.007.412-.422.413q-3.248,0-6.5,0c-.424,0-.428-.006-.428-.459q0-5.084,0-10.168V36.017c0-.11,0-.22,0-.329.013-.332.017-.344.35-.346.863-.005,1.726,0,2.589,0,1.271,0,2.542,0,3.813,0,.357,0,.363.008.365.369,0,.91,0,1.819,0,2.729Z" transform="translate(-733.518 -55.943)" fill="#fff"/><path d="M-710.065,46.678q0-4.378,0-8.755c0-.094,0-.188,0-.282.006-.406.006-.411.417-.411q3.248,0,6.5,0c.43,0,.434,0,.434.442q0,8.991,0,17.981c0,.078,0,.157,0,.235.005.16-.074.228-.229.223-.094,0-.188,0-.282,0h-6.308c-.094,0-.189-.006-.282,0-.184.011-.255-.079-.246-.255.005-.11,0-.22,0-.329Q-710.065,51.1-710.065,46.678Z" transform="translate(-690.149 -57.831)" fill="#fff"/><path d="M-1568.676,62.814a16.5,16.5,0,0,0,1.276,1.169,17.2,17.2,0,0,0,6.477,3.113c2.053.5,4.125.932,6.158,1.517a19.4,19.4,0,0,1,4.16,1.6,6.154,6.154,0,0,1,1.179.851,2.227,2.227,0,0,1,.033,3.236,4.257,4.257,0,0,1-1.682,1,10.384,10.384,0,0,1-2.856.528,12.849,12.849,0,0,1-4.338-.352,5.782,5.782,0,0,1-3.291-2.129,5.549,5.549,0,0,1-.995-2.849c-.039-.452-.1-.393-.451-.394h-5.129c-.11,0-.22,0-.329,0-.157,0-.233-.066-.227-.224,0-.063,0-.126,0-.188q0-3.27,0-6.541C-1568.693,63.071-1568.685,63-1568.676,62.814Z" transform="translate(-0.006 -78.396)" fill="#007ab2"/><path d="M-706.389,8.1q-1.623,0-3.246,0c-.425,0-.428,0-.429-.443q0-2.07,0-4.14c0-.394.006-.4.377-.4q3.293,0,6.586,0c.377,0,.382.007.383.4q0,2.094,0,4.187c0,.4-.006.4-.426.4Q-704.766,8.105-706.389,8.1Z" transform="translate(-690.15 -30.413)" fill="#fff"/><path d="M-811.124,158.511h1.472c.2,0,.21.159.226.3.046.4.079.811.123,1.216.1.918.2,1.835.321,2.754a13.893,13.893,0,0,0,.33-1.875c.116-.695.208-1.394.3-2.093.026-.205.09-.314.318-.3.313.013.628.012.941,0,.212-.007.305.064.334.286q.179,1.4.391,2.791a4.212,4.212,0,0,0,.254,1.186q.151-1.368.3-2.736c.044-.4.086-.81.12-1.216.02-.23.119-.327.362-.314.36.019.721,0,1.082.007.317.006.325.018.27.319q-.221,1.225-.448,2.449-.321,1.732-.645,3.463c-.083.445-.082.446-.535.448-.345,0-.69,0-1.035,0s-.358-.005-.412-.343c-.153-.959-.3-1.918-.45-2.877-.01-.06-.025-.12-.053-.247-.177.687-.224,1.328-.33,1.959-.07.417-.138.835-.185,1.254-.023.2-.12.261-.307.258-.408-.007-.815,0-1.223,0-.366,0-.366-.008-.438-.394q-.231-1.247-.463-2.494-.318-1.732-.635-3.465A.468.468,0,0,1-811.124,158.511Z" transform="translate(-608.89 -155.308)" fill="#007cb3"/><path d="M-906.247,152.23c.031,0,.063,0,.094,0,.249.013.55-.095.735.047s.055.471.1.712a2.8,2.8,0,0,0,.1.41.6.6,0,0,0,.617.415.641.641,0,0,0,.587-.467,1.156,1.156,0,0,0-.229-1.1,3.641,3.641,0,0,0-.756-.631,14.488,14.488,0,0,1-1.267-.974,2.132,2.132,0,0,1-.663-1.06,3.524,3.524,0,0,1-.055-1.677,2.167,2.167,0,0,1,2.145-1.769,3.6,3.6,0,0,1,1.072.1,2.285,2.285,0,0,1,1.637,2.534.192.192,0,0,1-.218.186c-.455,0-.909,0-1.364,0-.17,0-.209-.1-.206-.242a1.582,1.582,0,0,0-.132-.64.546.546,0,0,0-.536-.383.563.563,0,0,0-.565.41.831.831,0,0,0,.159.877,3.1,3.1,0,0,0,.7.626c.386.268.767.543,1.154.811a2.7,2.7,0,0,1,1.074,2.647c-.01.14-.039.279-.062.418a2.223,2.223,0,0,1-1.958,1.936,3.465,3.465,0,0,1-1.492-.09,2,2,0,0,1-1.391-1.292,4.274,4.274,0,0,1-.221-1.526c0-.191.075-.29.281-.281S-906.466,152.23-906.247,152.23Z" transform="translate(-531.708 -145.362)" fill="#007bb2"/><path d="M-677.35,152.218c.2,0,.408.007.612,0s.278.075.279.275a2.359,2.359,0,0,0,.1.882.629.629,0,0,0,.921.338.644.644,0,0,0,.311-.451,1.14,1.14,0,0,0-.158-.9,2.638,2.638,0,0,0-.719-.668c-.44-.3-.855-.636-1.281-.957a2.951,2.951,0,0,1-.532-3.608,2.207,2.207,0,0,1,1.776-1,3.23,3.23,0,0,1,1.12.095,2.019,2.019,0,0,1,1.538,1.5,3.558,3.558,0,0,1,.132.975c0,.172-.068.259-.251.257q-.659-.008-1.317,0c-.161,0-.213-.073-.225-.225a2.911,2.911,0,0,0-.1-.555.582.582,0,0,0-.652-.483.617.617,0,0,0-.544.609.965.965,0,0,0,.251.735,2.785,2.785,0,0,0,.6.524c.373.26.742.525,1.121.777a2.577,2.577,0,0,1,1.173,2.326,4.04,4.04,0,0,1-.11.978,2.2,2.2,0,0,1-1.949,1.775,3.437,3.437,0,0,1-1.491-.1,2.019,2.019,0,0,1-1.375-1.311,4.162,4.162,0,0,1-.2-1.482c0-.226.091-.308.31-.3S-677.57,152.218-677.35,152.218Z" transform="translate(-715.666 -145.35)" fill="#007bb2"/><path d="M-767.15,164.355c-.591,0-1.107,0-1.623,0-.172,0-.264-.063-.275-.24a2.638,2.638,0,0,0-.043-.266c-.176-.023-.237.112-.33.182a2.038,2.038,0,0,1-1.31.441,1.469,1.469,0,0,1-1.479-1.084,2.115,2.115,0,0,1,1.038-2.678c.364-.187.747-.326,1.124-.48a2.11,2.11,0,0,0,.607-.353.641.641,0,0,0,.19-.725.536.536,0,0,0-.526-.323.6.6,0,0,0-.568.48,1.019,1.019,0,0,0-.034.232c-.007.143-.091.186-.217.186-.439,0-.878,0-1.317,0-.178,0-.259-.068-.248-.251a1.844,1.844,0,0,1,1.322-1.853,3.76,3.76,0,0,1,2.36.053,1.459,1.459,0,0,1,1.055,1.258,5.74,5.74,0,0,1,.057.7q0,1.388,0,2.776A5.727,5.727,0,0,0-767.15,164.355Zm-2.114-3.177a1.693,1.693,0,0,0-1,.5.942.942,0,0,0-.251.952.517.517,0,0,0,.444.428.63.63,0,0,0,.66-.258.864.864,0,0,0,.148-.392A5.2,5.2,0,0,0-769.264,161.178Z" transform="translate(-640.096 -154.473)" fill="#007bb3"/><path d="M-509.631,158.671a1.851,1.851,0,0,1,1.273-.813,1.254,1.254,0,0,1,1.5.956,3.041,3.041,0,0,1,.141.878q0,2.3,0,4.609c0,.346-.009.352-.328.358q-.564.01-1.129,0c-.308-.006-.315-.012-.316-.37,0-1.192,0-2.383,0-3.575,0-.282,0-.565-.02-.846-.027-.344-.146-.489-.378-.514a.52.52,0,0,0-.541.367,1.656,1.656,0,0,0-.121.735q0,1.881,0,3.763c0,.436,0,.437-.436.44-.329,0-.659,0-.988,0-.35-.006-.356-.009-.358-.375,0-.753,0-1.505,0-2.258q0-1.764,0-3.528c0-.579-.037-.517.542-.521.251,0,.5,0,.753,0,.359.005.359.007.381.354C-509.649,158.41-509.643,158.487-509.631,158.671Z" transform="translate(-849.887 -154.778)" fill="#007cb3"/><path d="M-600.864,164.312c-.17.189-.259.3-.357.395a1.639,1.639,0,0,1-1.608.423,1.139,1.139,0,0,1-.833-.821,3.588,3.588,0,0,1-.182-1.156c-.007-1.459-.005-2.918,0-4.377,0-.39.006-.393.384-.4q.518-.006,1.035,0c.356,0,.364.008.365.367,0,1.255,0,2.51,0,3.765a3.89,3.89,0,0,0,.054.749c.038.2.082.371.317.406a.49.49,0,0,0,.545-.28,1.945,1.945,0,0,0,.182-.913c0-1.1,0-2.2,0-3.294,0-.8,0-.809.782-.8.307.005.7-.143.9.084.179.2.055.572.056.868,0,1.694,0,3.388,0,5.082,0,.094,0,.188,0,.282-.01.351-.011.355-.378.36-.329,0-.659-.006-.988,0-.2.006-.29-.07-.275-.273C-600.857,164.666-600.864,164.543-600.864,164.312Z" transform="translate(-775.523 -155.178)" fill="#007bb2"/><path d="M-872.251,161.163a15.907,15.907,0,0,1-.153,1.686,2,2,0,0,1-2.152,1.813,3.366,3.366,0,0,1-.929-.12,1.723,1.723,0,0,1-1.232-1.185,5.715,5.715,0,0,1-.26-1.477,8.663,8.663,0,0,1,.156-2.572,1.92,1.92,0,0,1,2.094-1.689,4.472,4.472,0,0,1,.47.01,1.836,1.836,0,0,1,1.758,1.441,4.463,4.463,0,0,1,.165.78C-872.288,160.287-872.277,160.727-872.251,161.163Zm-1.849-.062h0v-1.219a1.509,1.509,0,0,0-.12-.594.413.413,0,0,0-.405-.265.413.413,0,0,0-.383.226,1.085,1.085,0,0,0-.125.448,15.121,15.121,0,0,0,0,2.9,1.051,1.051,0,0,0,.11.4.414.414,0,0,0,.416.248.427.427,0,0,0,.393-.287,1.755,1.755,0,0,0,.112-.6Q-874.1,161.734-874.1,161.1Z" transform="translate(-555.965 -154.597)" fill="#007bb2"/><path d="M-643.4,161.1a7.848,7.848,0,0,1-.18,1.945,1.889,1.889,0,0,1-1.746,1.581,3.331,3.331,0,0,1-1.3-.092,1.687,1.687,0,0,1-1.187-1.11,4.487,4.487,0,0,1-.246-1.146,9.251,9.251,0,0,1,.132-3.038,1.889,1.889,0,0,1,2-1.625c.157,0,.314,0,.47,0a1.864,1.864,0,0,1,1.857,1.507A6.935,6.935,0,0,1-643.4,161.1Zm-1.8.044c0-.172,0-.344,0-.516a4.873,4.873,0,0,0-.1-1.211c-.071-.275-.221-.4-.451-.4a.468.468,0,0,0-.46.393,1.786,1.786,0,0,0-.035.232,15.146,15.146,0,0,0-.052,2.574,2.991,2.991,0,0,0,.113.691.427.427,0,0,0,.405.337.454.454,0,0,0,.459-.333,1.614,1.614,0,0,0,.058-.274A9.186,9.186,0,0,0-645.2,161.147Z" transform="translate(-739.931 -154.596)" fill="#007bb2"/><path d="M-540.648,161.11a6.764,6.764,0,0,1,.2-2,1.873,1.873,0,0,1,1.876-1.483,3.8,3.8,0,0,1,.935.056A1.754,1.754,0,0,1-536.2,159a8.133,8.133,0,0,1,.225,2.982,7.02,7.02,0,0,1-.126.93,1.957,1.957,0,0,1-2.105,1.747,2.92,2.92,0,0,1-.975-.121,1.68,1.68,0,0,1-1.184-1.11,5.194,5.194,0,0,1-.285-1.8C-540.649,161.455-540.648,161.283-540.648,161.11Zm2.91.037a11.445,11.445,0,0,0-.064-1.451,1,1,0,0,0-.122-.448.416.416,0,0,0-.383-.224.4.4,0,0,0-.4.266,1.886,1.886,0,0,0-.129.687c0,.563-.018,1.125-.014,1.688a7.431,7.431,0,0,0,.053.981c.061.431.246.622.521.607s.436-.235.472-.656A9.889,9.889,0,0,0-537.738,161.147Z" transform="translate(-826.322 -154.598)" fill="#007bb2"/><path d="M-718.817,161.356c-.392,0-.785.006-1.176,0-.2,0-.286.073-.282.274a4.406,4.406,0,0,0,.064,1.169c.1.343.251.461.562.454a.523.523,0,0,0,.554-.472,1.445,1.445,0,0,0,.04-.418c-.011-.215.092-.266.283-.262.361.009.722.009,1.082,0,.206-.005.263.085.271.28a2.031,2.031,0,0,1-2.11,2.25,3.325,3.325,0,0,1-1.07-.123,1.668,1.668,0,0,1-1.29-1.292,4,4,0,0,1-.137-.738,15.929,15.929,0,0,1,.058-3.1,1.9,1.9,0,0,1,1.617-1.719,3.18,3.18,0,0,1,1.49.022,1.771,1.771,0,0,1,1.391,1.435,9.529,9.529,0,0,1,.107,2.016c0,.2-.12.225-.277.224-.392,0-.784,0-1.177,0Zm-.843-1.145c.671,0,.671,0,.633-.613-.03-.494-.225-.741-.592-.75-.345-.009-.526.2-.6.691C-720.315,160.159-720.271,160.211-719.66,160.211Z" transform="translate(-680.498 -154.567)" fill="#007bb3"/><path d="M-482.942,162.328c.047,0,.094,0,.141,0a1.594,1.594,0,0,1,.556.041c.164.074.1.311.154.472a.626.626,0,0,0,.746.486.593.593,0,0,0,.453-.673.606.606,0,0,0-.323-.439c-.229-.135-.467-.257-.7-.378a5.806,5.806,0,0,1-.964-.584,2.108,2.108,0,0,1-.721-2.318,1.961,1.961,0,0,1,1.867-1.329,3.085,3.085,0,0,1,1.117.112,1.772,1.772,0,0,1,1.279,1.822c0,.165-.084.216-.235.214q-.541-.007-1.082,0c-.15,0-.232-.052-.243-.213a1.776,1.776,0,0,0-.069-.321.474.474,0,0,0-.461-.4.544.544,0,0,0-.558.271.6.6,0,0,0,.1.657,1.727,1.727,0,0,0,.58.393,8.906,8.906,0,0,1,1.075.582,2.226,2.226,0,0,1,.644,3.028,2.544,2.544,0,0,1-3.8.094,2.375,2.375,0,0,1-.388-1.287c-.009-.151.056-.236.219-.232C-483.35,162.331-483.146,162.328-482.942,162.328Z" transform="translate(-872.037 -154.583)" fill="#007cb3"/><path d="M-849.007,153.31c0-.721,0-1.442,0-2.163,0-.392-.006-.392-.369-.419-.327-.024-.33-.024-.337-.35-.005-.266.007-.533,0-.8-.008-.2.078-.266.276-.276.4-.02.4-.032.426-.449.009-.141.029-.28.048-.42a1.36,1.36,0,0,1,1.318-1.347,5.423,5.423,0,0,1,.986-.017c.157,0,.223.088.222.239,0,.219,0,.439,0,.658,0,.4,0,.4-.395.493a.575.575,0,0,0-.371.707c.044.136.154.131.265.141.506.044.506.046.506.56,0,.094.005.189,0,.282-.011.17.062.363-.046.5-.12.155-.323.062-.488.074s-.228.075-.226.23c0,.11,0,.219,0,.329q0,2.116,0,4.232c0,.47,0,.471-.451.473-.345,0-.69-.013-1.034,0-.257.013-.325-.1-.323-.333C-849,154.877-849.007,154.093-849.007,153.31Z" transform="translate(-577.9 -146.107)" fill="#007cb3"/><path d="M-575.676,154.42c0-.58,0-1.161,0-1.741,0-.357-.007-.357-.352-.386s-.34-.028-.35-.35c-.007-.235.006-.471,0-.706s.043-.342.309-.343c.392,0,.394-.022.4-.425s0-.784,0-1.176c0-.178.07-.255.25-.252.423.006.847.007,1.271,0,.206,0,.276.083.272.281-.008.408-.006.816,0,1.223,0,.345.009.358.327.356.583-.005.513-.006.518.549,0,.063,0,.126,0,.188-.017.2.078.434-.057.59s-.357.059-.54.064-.25.076-.249.255c.008,1.035,0,2.071.022,3.105.01.462.127.568.589.617.185.02.248.087.237.261-.008.125,0,.251,0,.376,0,.7,0,.7-.709.768a3.236,3.236,0,0,1-.423.007,1.389,1.389,0,0,1-1.485-1.425c-.005-.062-.009-.125-.009-.188q0-.823,0-1.647Z" transform="translate(-797.6 -147.702)" fill="#007cb3"/><path d="M-829.414,154.492c0-.7,0-1.268,0-1.832,0-.333-.009-.333-.325-.361-.343-.03-.344-.03-.35-.387,0-.141-.005-.282,0-.423.008-.17-.057-.361.04-.505s.29-.066.44-.076c.176-.012.2-.12.2-.255,0-.392,0-.784,0-1.176,0-.426,0-.427.447-.429q.447,0,.893,0c.443,0,.445,0,.448.428,0,.36,0,.721,0,1.082.005.336.01.348.337.347.55,0,.5-.026.508.51,0,.219,0,.439,0,.658,0,.158-.073.229-.228.224a.419.419,0,0,0-.047,0c-.57.044-.57.044-.57.593,0,.768,0,1.536,0,2.3a3.389,3.389,0,0,0,.041.514c.077.479.087.495.586.565.159.022.218.077.216.23,0,.282,0,.564,0,.846a.22.22,0,0,1-.213.251,2.975,2.975,0,0,1-1.4,0,1.249,1.249,0,0,1-.951-1.047A15.15,15.15,0,0,1-829.414,154.492Z" transform="translate(-593.665 -147.708)" fill="#007bb3"/><path d="M-617,151.678q0,2,0,4c0,.409-.005.411-.415.414-.36,0-.721-.005-1.081,0-.2,0-.3-.064-.28-.27.007-.094,0-.188,0-.282v-7.8c0-.031,0-.063,0-.094,0-.459,0-.46.463-.463.3,0,.6,0,.893,0,.414,0,.419.005.42.41,0,1.018,0,2.037,0,3.055Q-617,151.161-617,151.678Z" transform="translate(-763.522 -146.204)" fill="#007cb3"/><path d="M-739.584,158.934a2.342,2.342,0,0,1,.892-.817c.4-.171.47-.137.474.283,0,.47,0,.941,0,1.411,0,.182-.022.284-.262.256-.67-.078-.92.128-.976.809-.036.437-.024.877-.026,1.316,0,.752,0,1.5,0,2.257,0,.341-.009.347-.334.352-.376.007-.753-.011-1.129.006-.253.011-.323-.092-.319-.329.01-.705,0-1.411,0-2.116q0-1.9,0-3.81c0-.427,0-.428.444-.431.266,0,.533,0,.8,0,.37.005.367.007.38.4A.778.778,0,0,0-739.584,158.934Z" transform="translate(-665.072 -154.921)" fill="#007bb2"/><path d="M-553.257,161.921c0,.972,0,1.944,0,2.917,0,.358-.009.361-.369.366s-.722-.01-1.082,0c-.243.01-.334-.076-.327-.322.013-.5,0-1,0-1.505q0-2.211,0-4.422c0-.433,0-.434.438-.437.329,0,.659,0,.988,0s.346.01.348.34c.005.847,0,1.694,0,2.54Z" transform="translate(-814.758 -155.322)" fill="#007cb3"/><path d="M-554.307,148.574c-.231-.023-.577.115-.771-.056-.223-.2-.076-.559-.082-.848-.016-.706-.005-.706.722-.706.265,0,.531,0,.8,0,.176,0,.256.069.253.249q-.008.562,0,1.124c0,.186-.092.244-.263.239C-553.855,148.569-554.058,148.574-554.307,148.574Z" transform="translate(-814.625 -146.033)" fill="#007cb3"/></g></svg>